<svg width="65" height="80" viewBox="0 0 65 80" fill="none" xmlns="http://www.w3.org/2000/svg">
<g clip-path="url(#clip0_651_583)">
<path d="M17.6221 37.1199C17.6497 34.5824 17.6654 32.045 18.1363 29.5351C18.6918 26.5801 19.8798 23.9894 22.2301 22.0273C23.091 21.3082 23.9716 20.6128 24.8443 19.9075L25.4137 19.4465C24.7714 18.6742 24.1666 17.9552 23.5717 17.2262C21.3258 14.478 19.929 11.4205 20.0256 7.76996C20.1201 4.22386 21.9326 1.78494 24.8404 -0.0078125C24.3892 0.650186 23.9283 1.28848 23.5008 1.94648C22.6479 3.22033 22.2861 4.76024 22.4822 6.2806C22.762 8.54617 23.6997 10.5438 25.1004 12.3228C26.8991 14.6021 29.2651 16.2018 31.6962 17.7109C31.7159 17.7247 31.7612 17.6951 31.8774 17.6596C30.7427 15.8117 30.1044 13.8397 30.4452 11.6628C30.7702 9.53119 31.7474 7.73253 33.3471 6.06784C33.1816 7.11394 33.0279 7.98076 32.9097 8.85349C32.6536 10.7723 33.0319 12.5178 34.5193 13.8614C35.3447 14.5897 36.2088 15.273 37.1079 15.9083C39.0031 17.2873 40.983 18.5501 42.8211 19.9981C45.5673 22.1652 47.2557 24.9232 47.0725 28.5816C47.0477 28.9354 47.1001 29.2903 47.2261 29.6218C47.8118 31.0211 48.1343 32.5165 48.1777 34.0328C48.1974 34.6987 48.1107 35.3645 48.0732 36.0324H47.8585C47.7974 35.859 47.7324 35.6876 47.6753 35.5123C47.1846 33.9898 46.3493 32.601 45.2344 31.454C44.9818 31.1846 44.6767 30.9699 44.3378 30.8232C43.999 30.6764 43.6336 30.6008 43.2643 30.6009C41.2273 30.5044 39.3557 29.9607 37.8585 28.4595C37.3091 27.9225 36.7317 27.4148 36.1288 26.9386C35.4235 26.3673 34.6158 25.9634 33.6958 26.0225C31.2372 26.1782 28.9676 28.292 29.2395 31.192C29.3657 32.2638 29.6408 33.3128 30.0571 34.3086C30.7852 36.2135 31.9721 37.9092 33.5126 39.2455C35.5102 40.9575 37.8329 41.4816 40.3959 41.1368C42.8526 40.8058 45.2226 40.1202 47.1178 38.5009C54.3163 32.3543 57.4606 24.5371 56.4617 15.1005C56.0706 11.4493 54.8619 7.933 52.9255 4.81291C52.2242 3.66831 51.4223 2.58478 50.6678 1.47367C51.9287 2.33672 53.1366 3.27485 54.2848 4.28297C56.3494 6.12891 58.2249 8.15609 59.5725 10.597C62.9767 16.9109 63.8272 24.2908 61.9483 31.2136C59.6552 39.2909 54.734 45.201 47.297 49.0643C47.1197 49.1549 46.9523 49.2613 46.7809 49.3638L46.8597 49.5174C50.9164 49.0607 54.7411 47.3917 57.8349 44.7282C61.0244 42.0076 63.1658 38.5974 64.3774 34.5883C61.84 48.3255 49.9152 60.0513 33.8652 60.7428C16.7257 61.4835 3.24465 49.0249 0.685547 34.0623C1.75248 38.1222 4.00648 41.7714 7.15914 44.543C10.1812 47.2105 16.5662 49.9725 18.3885 49.3657C18.1915 49.2593 18.026 49.1687 17.8546 49.0742C14.4041 47.3601 11.3445 44.9524 8.86718 42.0016C5.01179 37.4213 2.84866 32.1277 2.31478 26.1801C2.07693 23.5316 2.23496 20.8625 2.78365 18.2605C3.44165 15.138 4.49563 12.1533 6.27853 9.49573C8.00021 6.96527 10.1205 4.73051 12.5571 2.87832C12.6654 2.79361 12.7915 2.73056 13.0122 2.59463C4.4582 15.991 9.23361 30.9299 17.5729 37.965C17.5926 37.6163 17.6201 37.3681 17.6221 37.1199ZM42.303 23.7944C41.7848 24.2908 41.7119 25.1321 42.1059 25.9181C42.3193 26.3556 42.6725 26.7095 43.1096 26.9236C43.5468 27.1377 44.0428 27.1998 44.5193 27.1001C44.2375 25.7524 43.4427 24.567 42.303 23.7944Z" fill="#9F867E"/>
<path d="M12.8308 75.8213H6.69605V79.2256C6.68346 79.362 6.71157 79.4991 6.77682 79.6196C6.86771 79.7136 6.98656 79.7758 7.11567 79.7969V79.9919H5.24609V79.7949C5.37487 79.7746 5.49331 79.7122 5.58297 79.6176C5.64995 79.4977 5.67881 79.3603 5.66572 79.2236V71.8221C5.67821 71.6852 5.64866 71.5477 5.58101 71.4281C5.4913 71.3353 5.37367 71.2744 5.24609 71.2547V71.0479H7.11765V71.2567C6.98981 71.2781 6.87232 71.3403 6.78273 71.434C6.71398 71.5532 6.68435 71.691 6.69802 71.828V74.9801H12.8308V71.828C12.8428 71.6909 12.8126 71.5534 12.7441 71.434C12.6558 71.3403 12.5385 71.2793 12.4112 71.2606V71.0479H14.2788V71.2567C14.1514 71.2778 14.0345 71.3401 13.9459 71.434C13.8763 71.553 13.846 71.6908 13.8592 71.828V79.2315C13.8482 79.3654 13.8784 79.4994 13.9459 79.6156C14.0339 79.711 14.1509 79.7747 14.2788 79.7969V79.9919H12.4112V79.7949C12.5382 79.7727 12.6548 79.7106 12.7441 79.6176C12.8137 79.4986 12.844 79.3608 12.8308 79.2236V75.8213Z" fill="black" fill-opacity="0.64"/>
<path d="M22.5983 77.488H17.8091L17.0211 79.1861C16.9638 79.2921 16.9264 79.4076 16.9108 79.527C16.9108 79.659 17.0389 79.7456 17.3048 79.791V79.9919H15.3013V79.7949C15.4557 79.7758 15.5997 79.7066 15.711 79.5979C15.8637 79.3971 15.9883 79.1764 16.0814 78.9419L19.3615 71.8654C19.4206 71.7568 19.4606 71.6389 19.4798 71.5167C19.4798 71.4025 19.3714 71.3197 19.1586 71.2606V71.0479H21.3355V71.2567C21.1208 71.3276 21.0144 71.4182 21.0144 71.5325C21.0369 71.6475 21.0767 71.7585 21.1326 71.8615L24.2729 78.6818C24.4007 78.9891 24.5543 79.285 24.7319 79.5664C24.8692 79.6864 25.0381 79.7644 25.2185 79.791V79.9919H23.0928V79.7949C23.347 79.7594 23.475 79.6629 23.475 79.5053C23.4503 79.3629 23.4017 79.2257 23.3312 79.0995L22.5983 77.488ZM22.2181 76.6428L20.2028 72.22L18.1894 76.6428H22.2181Z" fill="black" fill-opacity="0.64"/>
<path d="M27.6062 75.9733V79.2278C27.5948 79.3611 27.6251 79.4947 27.6929 79.61C27.7809 79.7054 27.8979 79.769 28.0258 79.7913V79.9922H26.1582V79.7952C26.2852 79.773 26.4018 79.7109 26.4911 79.6179C26.5607 79.4989 26.591 79.3611 26.5778 79.2239V71.8224C26.5899 71.6853 26.5596 71.5478 26.4911 71.4284C26.4029 71.3348 26.2855 71.2737 26.1582 71.255V71.0482H31.0696C31.6043 71.0376 32.1389 71.0739 32.6673 71.1565C33.0281 71.2164 33.3744 71.3441 33.6878 71.5328C33.9877 71.7206 34.2356 71.9807 34.4088 72.2893C34.6211 72.6631 34.7299 73.0868 34.724 73.5166C34.7351 73.8276 34.6802 74.1374 34.5631 74.4256C34.4459 74.7139 34.2691 74.9741 34.0443 75.1892C33.5912 75.62 32.9693 75.8663 32.1787 75.928L34.4541 79.4623C34.5134 79.5656 34.5998 79.6509 34.7039 79.7088C34.8081 79.7668 34.926 79.7953 35.0451 79.7913V79.9922H32.9647V79.7952C33.1795 79.7597 33.2859 79.6987 33.2859 79.612C33.2316 79.459 33.1538 79.3155 33.0554 79.1865L31.0223 75.9733H27.6062ZM27.6062 75.1203H31.2331C31.6071 75.1279 31.9811 75.1075 32.3521 75.0592C32.5854 75.0224 32.8106 74.9458 33.0179 74.8326C33.4691 74.5706 33.6937 74.1293 33.6937 73.5127C33.6937 72.8961 33.4612 72.4508 32.9982 72.1888C32.7852 72.0718 32.5531 71.9938 32.3127 71.9583C31.9245 71.9112 31.5334 71.8915 31.1424 71.8992H27.6062V75.1203Z" fill="black" fill-opacity="0.64"/>
<path d="M37.831 72.1826V79.2256C37.8205 79.3592 37.85 79.4929 37.9157 79.6097C38.0051 79.7043 38.1225 79.7678 38.2506 79.791V79.9919H36.4775V79.7949C36.6063 79.7746 36.7247 79.7122 36.8144 79.6176C36.8814 79.4977 36.9102 79.3603 36.8971 79.2236V71.8221C36.9096 71.6852 36.8801 71.5477 36.8124 71.4281C36.7227 71.3353 36.6051 71.2744 36.4775 71.2547V71.0479H39.0504V71.2567C38.8436 71.3276 38.7411 71.4261 38.7411 71.5522C38.7411 71.6389 38.8436 71.8044 39.0504 72.0447L44.4464 78.3489V71.8221C44.4589 71.6852 44.4293 71.5477 44.3617 71.4281C44.272 71.3353 44.1544 71.2744 44.0268 71.2547V71.0479H45.7998V71.2567C45.6723 71.2763 45.5546 71.3372 45.4649 71.43C45.3982 71.5501 45.3687 71.6872 45.3802 71.8241V79.2275C45.3675 79.3644 45.397 79.502 45.4649 79.6215C45.5554 79.714 45.6725 79.776 45.7998 79.7988V79.9919H43.7332V79.7949C43.9302 79.7417 44.0347 79.6531 44.0347 79.525C43.9905 79.344 43.8947 79.1797 43.7589 79.0522L37.831 72.1826Z" fill="black" fill-opacity="0.64"/>
<path d="M48.1877 79.2256V71.8221C48.2002 71.6852 48.1706 71.5477 48.103 71.4281C48.0133 71.3353 47.8956 71.2744 47.7681 71.2547V71.0479H49.6376V71.2567C49.51 71.2786 49.3927 71.3408 49.3027 71.434C49.234 71.5532 49.2044 71.691 49.218 71.828V79.2315C49.2054 79.3679 49.2335 79.505 49.2988 79.6255C49.3897 79.7196 49.5085 79.7817 49.6376 79.8028V79.9919H47.7681V79.7949C47.8968 79.7746 48.0153 79.7122 48.1049 79.6176C48.1715 79.4983 48.2004 79.3616 48.1877 79.2256Z" fill="black" fill-opacity="0.64"/>
<path d="M55.802 75.1929L58.757 78.9832C59.1642 79.4994 59.5208 79.7686 59.8268 79.791V79.9919H57.5218V79.7949C57.7326 79.7594 57.837 79.6846 57.837 79.5703C57.837 79.4876 57.7168 79.2945 57.4765 78.9793L55.1656 76.0242L52.8843 78.9793C52.64 79.2945 52.5179 79.4856 52.5179 79.5506C52.5179 79.655 52.6223 79.7338 52.8331 79.787V79.9919H50.666V79.7949C50.8559 79.763 51.0351 79.6853 51.1881 79.5683C51.3984 79.3972 51.5847 79.1984 51.7417 78.9773L54.5963 75.2973L52.3622 72.4308C52.117 72.0946 51.854 71.7717 51.5742 71.4635C51.4503 71.3544 51.298 71.2827 51.1349 71.2567V71.0479H53.4202V71.2567C53.2054 71.3217 53.0971 71.4182 53.0971 71.5463C53.1333 71.7455 53.2272 71.9297 53.367 72.0762L55.2405 74.4758L57.0923 72.0821C57.2494 71.9179 57.3578 71.7133 57.4056 71.4911C57.4056 71.3729 57.3012 71.2961 57.0923 71.2606V71.0479H59.22V71.2567C59.0143 71.3069 58.8263 71.4126 58.6763 71.562C58.4038 71.8311 58.1534 72.1216 57.9276 72.4308L55.802 75.1929Z" fill="black" fill-opacity="0.64"/>
</g>
<defs>
<clipPath id="clip0_651_583">
<rect width="63.6919" height="80" fill="white" transform="translate(0.685547)"/>
</clipPath>
</defs>
</svg>
