<svg width="42" height="41" viewBox="0 0 42 41" fill="none" xmlns="http://www.w3.org/2000/svg">
<path d="M17.5125 11.3112C18.855 7.9644 19.5262 6.29102 20.6805 6.29102C21.8347 6.29102 22.506 7.9644 23.8484 11.3112L23.9109 11.467C24.6694 13.3578 25.0486 14.3032 25.8215 14.8778C26.5943 15.4524 27.6089 15.5433 29.6379 15.725L30.0048 15.7578C33.3256 16.0552 34.9861 16.2039 35.3414 17.2603C35.6966 18.3167 34.4635 19.4386 31.9973 21.6823L31.1742 22.4312C29.9258 23.567 29.3016 24.1349 29.0106 24.8792C28.9564 25.0181 28.9112 25.1603 28.8756 25.3051C28.6843 26.081 28.8671 26.9049 29.2327 28.5526L29.3465 29.0655C30.0184 32.0937 30.3543 33.6078 29.7678 34.2609C29.5486 34.5049 29.2637 34.6806 28.9473 34.767C28.1004 34.9981 26.8981 34.0184 24.4935 32.0589C22.9145 30.7723 22.1251 30.129 21.2187 29.9843C20.8621 29.9274 20.4988 29.9274 20.1423 29.9843C19.2359 30.129 18.4464 30.7723 16.8674 32.0589C14.4628 34.0184 13.2605 34.9981 12.4137 34.767C12.0972 34.6806 11.8123 34.5049 11.5932 34.2609C11.0066 33.6078 11.3426 32.0937 12.0144 29.0655L12.1282 28.5526C12.4938 26.9049 12.6766 26.081 12.4854 25.3051C12.4497 25.1603 12.4046 25.0181 12.3503 24.8792C12.0594 24.1349 11.4351 23.567 10.1867 22.4312L9.3636 21.6823C6.8974 19.4386 5.66429 18.3167 6.01958 17.2603C6.37487 16.2039 8.0353 16.0552 11.3562 15.7578L11.723 15.725C13.7521 15.5433 14.7666 15.4524 15.5395 14.8778C16.3123 14.3032 16.6916 13.3578 17.45 11.467L17.5125 11.3112Z" fill="#F3C348" stroke="#F3C348" stroke-width="1.70667"/>
</svg>
