<svg width="42" height="41" viewBox="0 0 42 41" fill="none" xmlns="http://www.w3.org/2000/svg">
<path d="M17.5525 11.3112C18.895 7.9644 19.5662 6.29102 20.7205 6.29102C21.8748 6.29102 22.546 7.9644 23.8885 11.3112L23.951 11.467C24.7094 13.3578 25.0886 14.3032 25.8615 14.8778C26.6344 15.4524 27.6489 15.5433 29.678 15.725L30.0448 15.7578C33.3657 16.0552 35.0261 16.2039 35.3814 17.2603C35.7367 18.3167 34.5036 19.4386 32.0374 21.6823L31.2143 22.4312C29.9658 23.567 29.3416 24.1349 29.0507 24.8792C28.9964 25.0181 28.9513 25.1603 28.9156 25.3051C28.7244 26.081 28.9072 26.9049 29.2727 28.5526L29.3865 29.0655C30.0584 32.0937 30.3943 33.6078 29.8078 34.2609C29.5886 34.5049 29.3038 34.6806 28.9873 34.767C28.1405 34.9981 26.9382 34.0184 24.5335 32.0589C22.9546 30.7723 22.1651 30.129 21.2587 29.9843C20.9022 29.9274 20.5389 29.9274 20.1823 29.9843C19.2759 30.129 18.4864 30.7723 16.9075 32.0589C14.5029 34.0184 13.3005 34.9981 12.4537 34.767C12.1372 34.6806 11.8524 34.5049 11.6332 34.2609C11.0467 33.6078 11.3826 32.0937 12.0545 29.0655L12.1683 28.5526C12.5338 26.9049 12.7166 26.081 12.5254 25.3051C12.4897 25.1603 12.4446 25.0181 12.3903 24.8792C12.0994 24.1349 11.4752 23.567 10.2267 22.4312L9.40364 21.6823C6.93743 19.4386 5.70433 18.3167 6.05962 17.2603C6.41491 16.2039 8.07534 16.0552 11.3962 15.7578L11.763 15.725C13.7921 15.5433 14.8066 15.4524 15.5795 14.8778C16.3524 14.3032 16.7316 13.3578 17.49 11.467L17.5525 11.3112Z" stroke="#222222" stroke-width="1.70667"/>
</svg>
